<svg xmlns:svg="http://www.w3.org/2000/svg" xmlns="http://www.w3.org/2000/svg" id="svg2" version="1.1" xml:space="preserve" width="135.72" height="40.02" viewBox="0 0 135.72 40.02"><metadata id="metadata8"/><defs id="defs6"><linearGradient x1="31.8" y1="183.29" x2="15.02" y2="166.51" gradientUnits="userSpaceOnUse" gradientTransform="matrix(0.8,0,0,-0.8,0,161.6)" spreadMethod="pad" id="linearGradient50"><stop offset="0" id="stop52" style="stop-color:#00a0ff;stop-opacity:1"/><stop offset="0.01" id="stop54" style="stop-color:#00a1ff;stop-opacity:1"/><stop offset="0.26" id="stop56" style="stop-color:#00beff;stop-opacity:1"/><stop offset="0.51" id="stop58" style="stop-color:#00d2ff;stop-opacity:1"/><stop offset="0.76" id="stop60" style="stop-color:#00dfff;stop-opacity:1"/><stop offset="1" id="stop62" style="stop-color:#00e3ff;stop-opacity:1"/></linearGradient><linearGradient x1="43.83" y1="172" x2="19.64" y2="172" gradientUnits="userSpaceOnUse" gradientTransform="matrix(0.8,0,0,-0.8,0,161.6)" spreadMethod="pad" id="linearGradient68"><stop offset="0" id="stop70" style="stop-color:#ffe000;stop-opacity:1"/><stop offset="0.41" id="stop72" style="stop-color:#ffbd00;stop-opacity:1"/><stop offset="0.78" id="stop74" style="stop-color:#ffa500;stop-opacity:1"/><stop offset="1" id="stop76" style="stop-color:#ff9c00;stop-opacity:1"/></linearGradient><linearGradient x1="34.83" y1="169.7" x2="12.07" y2="146.95" gradientUnits="userSpaceOnUse" gradientTransform="matrix(0.8,0,0,-0.8,0,161.6)" spreadMethod="pad" id="linearGradient82"><stop offset="0" id="stop84" style="stop-color:#ff3a44;stop-opacity:1"/><stop offset="1" id="stop86" style="stop-color:#c31162;stop-opacity:1"/></linearGradient><linearGradient x1="17.3" y1="191.82" x2="27.46" y2="181.66" gradientUnits="userSpaceOnUse" gradientTransform="matrix(0.8,0,0,-0.8,0,161.6)" spreadMethod="pad" id="linearGradient92"><stop offset="0" id="stop94" style="stop-color:#32a071;stop-opacity:1"/><stop offset="0.07" id="stop96" style="stop-color:#2da771;stop-opacity:1"/><stop offset="0.48" id="stop98" style="stop-color:#15cf74;stop-opacity:1"/><stop offset="0.8" id="stop100" style="stop-color:#06e775;stop-opacity:1"/><stop offset="1" id="stop102" style="stop-color:#00f076;stop-opacity:1"/></linearGradient><clipPath clipPathUnits="userSpaceOnUse" id="clipPath110"><path d="M0 0 124 0 124 48 0 48 0 0Z" id="path112"/></clipPath><mask maskUnits="userSpaceOnUse" x="0" y="0" width="1" height="1" id="mask114"><g id="g116"><g clip-path="url(#clipPath110)" id="g118"><path d="M0 0 124 0 124 48 0 48 0 0Z" id="path120" style="fill-opacity:0.2;fill-rule:nonzero;fill:#000"/></g></g></mask><clipPath clipPathUnits="userSpaceOnUse" id="clipPath126"><path d="M0 0 124 0 124 48 0 48 0 0Z" id="path128"/></clipPath><clipPath clipPathUnits="userSpaceOnUse" id="clipPath130"><path d="M0 0 124 0 124 48 0 48 0 0Z" id="path132"/></clipPath><pattern patternTransform="matrix(1,0,0,-1,0,48)" patternUnits="userSpaceOnUse" x="0" y="0" width="124" height="48" id="pattern134"><g id="g136"/><g id="g138"><g clip-path="url(#clipPath130)" id="g140"><g id="g142"><path d="M29.63 20.7 18.01 14.1C17.36 13.73 16.78 13.75 16.41 14.09l-0.06-0.06 0.06-0.06c0.38-0.34 0.96-0.36 1.61 0.01l11.69 6.64-0.07 0.07z" id="path144" style="fill-rule:nonzero;fill:#000"/></g></g></g></pattern><clipPath clipPathUnits="userSpaceOnUse" id="clipPath158"><path d="M0 0 124 0 124 48 0 48 0 0Z" id="path160"/></clipPath><mask maskUnits="userSpaceOnUse" x="0" y="0" width="1" height="1" id="mask162"><g id="g164"><g clip-path="url(#clipPath158)" id="g166"><path d="M0 0 124 0 124 48 0 48 0 0Z" id="path168" style="fill-opacity:0.12;fill-rule:nonzero;fill:#000"/></g></g></mask><clipPath clipPathUnits="userSpaceOnUse" id="clipPath174"><path d="M0 0 124 0 124 48 0 48 0 0Z" id="path176"/></clipPath><clipPath clipPathUnits="userSpaceOnUse" id="clipPath178"><path d="M0 0 124 0 124 48 0 48 0 0Z" id="path180"/></clipPath><pattern patternTransform="matrix(1,0,0,-1,0,48)" patternUnits="userSpaceOnUse" x="0" y="0" width="124" height="48" id="pattern182"><g id="g184"/><g id="g186"><g clip-path="url(#clipPath178)" id="g188"><g id="g190"><path d="m16.35 14.15c-0.23 0.25-0.37 0.63-0.37 1.13l0-0.12c0-0.5 0.14-0.88 0.37-1.12l0.06 0.06-0.06 0.06z" id="path192" style="fill-rule:nonzero;fill:#000"/></g></g></g></pattern><clipPath clipPathUnits="userSpaceOnUse" id="clipPath206"><path d="M0 0 124 0 124 48 0 48 0 0Z" id="path208"/></clipPath><mask maskUnits="userSpaceOnUse" x="0" y="0" width="1" height="1" id="mask210"><g id="g212"><g clip-path="url(#clipPath206)" id="g214"><path d="M0 0 124 0 124 48 0 48 0 0Z" id="path216" style="fill-opacity:0.12;fill-rule:nonzero;fill:#000"/></g></g></mask><clipPath clipPathUnits="userSpaceOnUse" id="clipPath222"><path d="M0 0 124 0 124 48 0 48 0 0Z" id="path224"/></clipPath><clipPath clipPathUnits="userSpaceOnUse" id="clipPath226"><path d="M0 0 124 0 124 48 0 48 0 0Z" id="path228"/></clipPath><pattern patternTransform="matrix(1,0,0,-1,0,48)" patternUnits="userSpaceOnUse" x="0" y="0" width="124" height="48" id="pattern230"><g id="g232"/><g id="g234"><g clip-path="url(#clipPath226)" id="g236"><g id="g238"><path d="m33.61 22.96-3.99-2.27 0.07-0.07 3.91 2.22c0.56 0.32 0.84 0.73 0.84 1.16-0.05-0.38-0.33-0.75-0.84-1.04z" id="path240" style="fill-rule:nonzero;fill:#000"/></g></g></g></pattern><clipPath clipPathUnits="userSpaceOnUse" id="clipPath254"><path d="M0 0 124 0 124 48 0 48 0 0Z" id="path256"/></clipPath><mask maskUnits="userSpaceOnUse" x="0" y="0" width="1" height="1" id="mask258"><g id="g260"><g clip-path="url(#clipPath254)" id="g262"><path d="M0 0 124 0 124 48 0 48 0 0Z" id="path264" style="fill-opacity:0.25;fill-rule:nonzero;fill:#000"/></g></g></mask><clipPath clipPathUnits="userSpaceOnUse" id="clipPath270"><path d="M0 0 124 0 124 48 0 48 0 0Z" id="path272"/></clipPath><clipPath clipPathUnits="userSpaceOnUse" id="clipPath274"><path d="M0 0 124 0 124 48 0 48 0 0Z" id="path276"/></clipPath><pattern patternTransform="matrix(1,0,0,-1,0,48)" patternUnits="userSpaceOnUse" x="0" y="0" width="124" height="48" id="pattern278"><g id="g280"/><g id="g282"><g clip-path="url(#clipPath274)" id="g284"><g id="g286"><path d="m18.01 33.9 15.6-8.86c0.51-0.29 0.79-0.66 0.84-1.04 0 0.42-0.28 0.84-0.84 1.16L18.01 34.02c-1.12 0.63-2.03 0.11-2.03-1.18l0-0.11c0 1.28 0.92 1.81 2.04 1.17z" id="path288" style="fill-rule:nonzero;fill:#fff"/></g></g></g></pattern></defs><g id="g10" transform="matrix(1.25,0,0,-1.25,-9.4247625,49.85025)"><g id="g12" transform="matrix(1.0023923,0,0,0.99072975,-0.29664807,0)"><path d="M112 8 12 8C9.8 8 8 9.8 8 12l0 24c0 2.2 1.8 4 4 4l100 0c2.2 0 4-1.8 4-4l0-24c0-2.2-1.8-4-4-4z" id="path14" style="fill-rule:nonzero;fill:#000"/><path d="m112 39.36c1.85 0 3.36-1.51 3.36-3.36l0-24c0-1.85-1.51-3.36-3.36-3.36l-100 0c-1.85 0-3.36 1.51-3.36 3.36l0 24c0 1.85 1.51 3.36 3.36 3.36l100 0M112 40 12 40C9.8 40 8 38.2 8 36L8 12C8 9.8 9.8 8 12 8l100 0c2.2 0 4 1.8 4 4l0 24c0 2.2-1.8 4-4 4z" id="path16" style="fill-rule:nonzero;fill:transparent"/><g id="g18" transform="matrix(1,0,0,-1,0,48)"><path d="m45.93 16.2c0 0.67-0.2 1.2-0.59 1.6-0.45 0.47-1.04 0.71-1.77 0.71-0.69 0-1.28-0.24-1.76-0.72-0.48-0.48-0.73-1.08-0.73-1.79 0-0.71 0.24-1.3 0.73-1.78 0.48-0.48 1.07-0.72 1.77-0.72 0.34 0 0.67 0.07 0.99 0.2 0.31 0.13 0.57 0.31 0.75 0.54l-0.42 0.42c-0.32-0.38-0.76-0.57-1.32-0.57-0.5 0-0.94 0.18-1.31 0.53-0.37 0.36-0.55 0.82-0.55 1.38 0 0.57 0.18 1.03 0.55 1.39 0.37 0.35 0.81 0.53 1.31 0.53 0.54 0 0.99-0.18 1.34-0.53 0.23-0.23 0.37-0.56 0.4-0.97l-1.74 0 0-0.58 2.32 0c0.03 0.13 0.04 0.25 0.04 0.36z" id="path20" style="fill-rule:nonzero;fill:#fff;stroke-miterlimit:10;stroke-width:0.16;stroke:#fff"/></g><g id="g22" transform="matrix(1,0,0,-1,0,48)"><path d="m49.62 14.19-2.18 0 0 1.52 1.97 0 0 0.58-1.97 0 0 1.52 2.18 0 0 0.59-2.8 0 0-4.8 2.8 0 0 0.59z" id="path24" style="fill-rule:nonzero;fill:#fff;stroke-miterlimit:10;stroke-width:0.16;stroke:#fff"/></g><g id="g26" transform="matrix(1,0,0,-1,0,48)"><path d="m52.22 18.4-0.62 0 0-4.21-1.34 0 0-0.59 3.3 0 0 0.59-1.34 0 0 4.21z" id="path28" style="fill-rule:nonzero;fill:#fff;stroke-miterlimit:10;stroke-width:0.16;stroke:#fff"/></g><g id="g30" transform="matrix(1,0,0,-1,0,48)"><path d="m55.95 18.4 0-4.8 0.62 0 0 4.8-0.62 0z" id="path32" style="fill-rule:nonzero;fill:#fff;stroke-miterlimit:10;stroke-width:0.16;stroke:#fff"/></g><g id="g34" transform="matrix(1,0,0,-1,0,48)"><path d="m59.3 18.4-0.61 0 0-4.21-1.34 0 0-0.59 3.3 0 0 0.59-1.34 0 0 4.21z" id="path36" style="fill-rule:nonzero;fill:#fff;stroke-miterlimit:10;stroke-width:0.16;stroke:#fff"/></g><g id="g38" transform="matrix(1,0,0,-1,0,48)"><path d="m66.89 17.78c-0.47 0.49-1.06 0.73-1.76 0.73-0.7 0-1.29-0.24-1.76-0.73C62.9 17.3 62.66 16.7 62.66 16c0-0.7 0.24-1.3 0.71-1.78 0.47-0.48 1.06-0.73 1.76-0.73 0.7 0 1.28 0.24 1.75 0.73 0.48 0.49 0.71 1.08 0.71 1.78 0 0.7-0.23 1.3-0.71 1.78zm-3.06-0.4c0.36 0.36 0.79 0.54 1.31 0.54 0.51 0 0.95-0.18 1.3-0.54 0.36-0.36 0.54-0.82 0.54-1.38 0-0.56-0.18-1.02-0.53-1.38-0.35-0.36-0.79-0.54-1.3-0.54-0.52 0-0.95 0.18-1.3 0.54-0.35 0.36-0.53 0.82-0.53 1.38 0 0.56 0.18 1.02 0.54 1.38z" id="path40" style="fill-rule:nonzero;fill:#fff;stroke-miterlimit:10;stroke-width:0.16;stroke:#fff"/></g><g id="g42" transform="matrix(1,0,0,-1,0,48)"><path d="m68.46 18.4 0-4.8 0.75 0 2.33 3.73 0.03 0-0.03-0.92 0-2.81 0.62 0 0 4.8-0.64 0-2.44-3.91-0.03 0 0.03 0.93 0 2.99-0.61 0z" id="path44" style="fill-rule:nonzero;fill:#fff;stroke-miterlimit:10;stroke-width:0.16;stroke:#fff"/></g><path d="m62.51 22.6c-1.88 0-3.41-1.43-3.41-3.4 0-1.96 1.54-3.4 3.41-3.4 1.88 0 3.42 1.45 3.42 3.4 0 1.97-1.53 3.4-3.42 3.4zm0-5.46c-1.03 0-1.92 0.85-1.92 2.06 0 1.23 0.89 2.06 1.92 2.06 1.03 0 1.92-0.84 1.92-2.06 0-1.21-0.89-2.06-1.92-2.06zm-7.45 5.47c-1.88 0-3.41-1.43-3.41-3.4 0-1.96 1.53-3.4 3.41-3.4 1.88 0 3.41 1.45 3.41 3.4 0 1.97-1.53 3.4-3.41 3.4zm0-5.46c-1.03 0-1.92 0.85-1.92 2.06 0 1.23 0.89 2.06 1.92 2.06 1.03 0 1.92-0.84 1.92-2.06 0-1.21-0.89-2.06-1.92-2.06zm-8.86 4.42 0-1.45 3.45 0c-0.1-0.81-0.37-1.4-0.78-1.82-0.5-0.5-1.29-1.05-2.67-1.05-2.12 0-3.79 1.72-3.79 3.84 0 2.13 1.66 3.84 3.79 3.84 1.15 0 1.99-0.45 2.6-1.03l1.02 1.02c-0.86 0.82-2.01 1.46-3.62 1.46-2.91 0-5.36-2.37-5.36-5.28 0-2.91 2.45-5.28 5.36-5.28 1.58 0 2.76 0.52 3.69 1.48 0.95 0.95 1.25 2.29 1.25 3.38 0 0.34-0.03 0.65-0.08 0.9l-4.86 0zm36.25-1.12c-0.28 0.76-1.15 2.16-2.91 2.16-1.75 0-3.21-1.38-3.21-3.4 0-1.91 1.44-3.4 3.38-3.4 1.56 0 2.47 0.95 2.84 1.51l-1.16 0.77c-0.39-0.57-0.91-0.94-1.68-0.94-0.76 0-1.3 0.35-1.65 1.03l4.55 1.88-0.16 0.39zm-4.64-1.13c-0.04 1.31 1.02 1.98 1.78 1.98 0.59 0 1.1-0.3 1.27-0.72L77.8 19.3ZM74.1 16l1.5 0 0 10-1.5 0 0-10zm-2.45 5.84-0.05 0c-0.34 0.4-0.98 0.76-1.79 0.76-1.7 0-3.26-1.5-3.26-3.41 0-1.91 1.56-3.39 3.26-3.39 0.81 0 1.45 0.36 1.79 0.77l0.05 0 0-0.49c0-1.3-0.69-2-1.82-2-0.91 0-1.48 0.66-1.71 1.22L66.82 14.75c0.38-0.9 1.37-2.01 3.02-2.01 1.75 0 3.23 1.03 3.23 3.54l0 6.11-1.42 0 0-0.55zm-1.71-4.71c-1.03 0-1.89 0.86-1.89 2.05 0 1.2 0.86 2.07 1.89 2.07 1.02 0 1.82-0.87 1.82-2.07 0-1.19-0.8-2.05-1.82-2.05zM89.45 26l-3.58 0 0-10 1.49 0 0 3.79 2.09 0c1.66 0 3.28 1.2 3.28 3.11 0 1.91-1.63 3.11-3.28 3.11zm0.04-4.82-2.12 0 0 3.43 2.13 0c1.11 0 1.75-0.92 1.75-1.71 0-0.77-0.64-1.71-1.75-1.71zm9.22 1.44c-1.08 0-2.2-0.48-2.66-1.53l1.32-0.56c0.28 0.56 0.81 0.74 1.36 0.74 0.77 0 1.56-0.46 1.57-1.29l0-0.1c-0.27 0.16-0.85 0.39-1.56 0.39-1.43 0-2.88-0.78-2.88-2.25 0-1.34 1.17-2.2 2.48-2.2 1 0 1.56 0.45 1.91 0.98l0.05 0 0-0.77 1.44 0 0 3.84c0 1.77-1.32 2.77-3.04 2.77zm-0.18-5.48c-0.49 0-1.17 0.24-1.17 0.85 0 0.77 0.85 1.07 1.58 1.07 0.66 0 0.97-0.14 1.36-0.34-0.12-0.93-0.91-1.58-1.78-1.58zm8.47 5.26-1.71-4.33-0.05 0-1.77 4.34-1.61 0 2.66-6.06-1.52-3.37 1.56 0 4.11 9.43-1.66 0zM93.55 16l1.5 0 0 10-1.5 0 0-10z" id="path46" style="fill-rule:nonzero;fill:#fff"/><g id="g48"><path d="M16.35 33.97C16.11 33.72 15.98 33.34 15.98 32.84l0-17.69c0-0.5 0.14-0.88 0.37-1.12l0.06-0.05 9.91 9.91 0 0.23-9.91 9.91-0.06-0.06z" id="path64" style="fill-rule:nonzero;fill:url(#linearGradient50)"/></g><g id="g66"><path d="m29.62 20.58-3.3 3.31 0 0.23 3.31 3.31 0.07-0.04 3.91-2.23c1.12-0.63 1.12-1.67 0-2.31l-3.91-2.22-0.08-0.04z" id="path78" style="fill-rule:nonzero;fill:url(#linearGradient68)"/></g><g id="g80"><path d="M29.7 20.62 26.32 24 16.35 14.03c0.37-0.39 0.98-0.44 1.66-0.05l11.69 6.64" id="path88" style="fill-rule:nonzero;fill:url(#linearGradient82)"/></g><g id="g90"><path d="M29.7 27.38 18.01 34.02c-0.69 0.39-1.29 0.34-1.66-0.05L26.32 24l3.38 3.38z" id="path104" style="fill-rule:nonzero;fill:url(#linearGradient92)"/></g><g id="g106"><g id="g108"/><g id="g122" mask="url(#mask114)"><g id="g124"/><g id="g146"><g clip-path="url(#clipPath126)" id="g148"><g id="g150"><path d="M0 0 124 0 124 48 0 48 0 0Z" id="path152" style="fill-rule:nonzero;fill:url(#pattern134)"/></g></g></g></g></g><g id="g154"><g id="g156"/><g id="g170" mask="url(#mask162)"><g id="g172"/><g id="g194"><g clip-path="url(#clipPath174)" id="g196"><g id="g198"><path d="M0 0 124 0 124 48 0 48 0 0Z" id="path200" style="fill-rule:nonzero;fill:url(#pattern182)"/></g></g></g></g></g><g id="g202"><g id="g204"/><g id="g218" mask="url(#mask210)"><g id="g220"/><g id="g242"><g clip-path="url(#clipPath222)" id="g244"><g id="g246"><path d="M0 0 124 0 124 48 0 48 0 0Z" id="path248" style="fill-rule:nonzero;fill:url(#pattern230)"/></g></g></g></g></g><g id="g250"><g id="g252"/><g id="g266" mask="url(#mask258)"><g id="g268"/><g id="g290"><g clip-path="url(#clipPath270)" id="g292"><g id="g294"><path d="M0 0 124 0 124 48 0 48 0 0Z" id="path296" style="fill-rule:nonzero;fill:url(#pattern278)"/></g></g></g></g></g></g></g></svg>